/* XPM */
static char * xmms_xpm[] = {
"48 48 242 2",
"  	c None",
". 	c #FCFEFC",
"+ 	c #ECEAEC",
"@ 	c #E4E4E4",
"# 	c #DCDEDC",
"$ 	c #F4F2F4",
"% 	c #BCBEBC",
"& 	c #B4B6B4",
"* 	c #B4B2B4",
"= 	c #ACAEAC",
"- 	c #ACAAAC",
"; 	c #A4A6A4",
"> 	c #C4C2C4",
", 	c #BCBABC",
"' 	c #D4D2D4",
") 	c #DCDADC",
"! 	c #FCFAFC",
"~ 	c #CCCCCC",
"{ 	c #A4A2A4",
"] 	c #9C9A9C",
"^ 	c #949694",
"/ 	c #949294",
"( 	c #8C8E8C",
"_ 	c #8C8A8C",
": 	c #848284",
"< 	c #7C827C",
"[ 	c #848684",
"} 	c #7C7C7C",
"| 	c #747674",
"1 	c #747274",
"2 	c #6C6E6C",
"3 	c #6C6A6C",
"4 	c #646464",
"5 	c #5C5A5C",
"6 	c #545654",
"7 	c #545254",
"8 	c #4C4C4C",
"9 	c #F4F6F4",
"0 	c #9C9F9C",
"a 	c #5C5E5C",
"b 	c #444544",
"c 	c #D4D6D4",
"d 	c #949E94",
"e 	c #8C928C",
"f 	c #3C3A3C",
"g 	c #C4C7C4",
"h 	c #E4EAE4",
"i 	c #3C3E3C",
"j 	c #DCE6DC",
"k 	c #848A84",
"l 	c #6C766C",
"m 	c #849684",
"n 	c #6C866C",
"o 	c #ECEEEC",
"p 	c #84AA88",
"q 	c #6C946C",
"r 	c #A4AAA4",
"s 	c #BCCABC",
"t 	c #649E64",
"u 	c #649A68",
"v 	c #ACB2B4",
"w 	c #B4D2B4",
"x 	c #5CA65C",
"y 	c #9CBE9C",
"z 	c #94DD9C",
"A 	c #4C9A4C",
"B 	c #9CA99C",
"C 	c #849288",
"D 	c #54AA58",
"E 	c #84CA8C",
"F 	c #6CE274",
"G 	c #ACBEAC",
"H 	c #449E48",
"I 	c #7CA27C",
"J 	c #54AE54",
"K 	c #8CA290",
"L 	c #64DE6C",
"M 	c #7C877C",
"N 	c #44EA54",
"O 	c #8CB294",
"P 	c #4CAE4C",
"Q 	c #549E54",
"R 	c #54725C",
"S 	c #64AA64",
"T 	c #54B254",
"U 	c #7CAA84",
"V 	c #74967C",
"W 	c #ACD2B4",
"X 	c #3CEE4C",
"Y 	c #C4CECC",
"Z 	c #64AE6C",
"` 	c #44CA44",
" .	c #748E74",
"..	c #2CBA2C",
"+.	c #347244",
"@.	c #2CC23C",
"#.	c #8C9E8C",
"$.	c #3CC63C",
"%.	c #94B294",
"&.	c #BCD6C4",
"*.	c #74AA84",
"=.	c #74D688",
"-.	c #84C294",
";.	c #44BE5C",
">.	c #54DA54",
",.	c #6CC274",
"'.	c #3CE23C",
").	c #2C9244",
"!.	c #5CC264",
"~.	c #849A86",
"{.	c #74AE7C",
"].	c #6CCA74",
"^.	c #9CD2AC",
"/.	c #74B684",
"(.	c #5CE26C",
"_.	c #74EE74",
":.	c #4CCE64",
"<.	c #34D654",
"[.	c #7CAE7C",
"}.	c #7CEA88",
"|.	c #5CD664",
"1.	c #54D274",
"2.	c #5CD264",
"3.	c #6CA274",
"4.	c #44C65C",
"5.	c #54DE67",
"6.	c #8CD2A0",
"7.	c #849E84",
"8.	c #74BE84",
"9.	c #5CEE74",
"0.	c #9CF6AC",
"a.	c #2CE24C",
"b.	c #5CAA64",
"c.	c #3CEA64",
"d.	c #ACF2B4",
"e.	c #74E27C",
"f.	c #BCC2BC",
"g.	c #94EA9C",
"h.	c #B4BAB4",
"i.	c #B4F2B4",
"j.	c #9CAEA0",
"k.	c #84CE9C",
"l.	c #C4E2CC",
"m.	c #8CBE9C",
"n.	c #6CD28C",
"o.	c #6CDE84",
"p.	c #B4FAC4",
"q.	c #5CF67C",
"r.	c #5CF27C",
"s.	c #CCFAD7",
"t.	c #9CFAA4",
"u.	c #D4FAD7",
"v.	c #B4C9B4",
"w.	c #ACCAAC",
"x.	c #B4F2C4",
"y.	c #A4BEA4",
"z.	c #84EA97",
"A.	c #A4F6B4",
"B.	c #5CD274",
"C.	c #ACDEBC",
"D.	c #C4D3C4",
"E.	c #9CC6AC",
"F.	c #74FA9C",
"G.	c #8CFAAC",
"H.	c #D4FEDC",
"I.	c #7CFA9C",
"J.	c #84FAA4",
"K.	c #BCF7CC",
"L.	c #DCFAE1",
"M.	c #C4FAD4",
"N.	c #8CF2A4",
"O.	c #ACEEBC",
"P.	c #C4EED4",
"Q.	c #E4F6E4",
"R.	c #44D25C",
"S.	c #5C8E64",
"T.	c #74F68C",
"U.	c #24EA44",
"V.	c #34963C",
"W.	c #3CBA4C",
"X.	c #A4EEAC",
"Y.	c #9CEEAC",
"Z.	c #5C9E64",
"`.	c #8CE2A4",
" +	c #4C9A64",
".+	c #2C9634",
"++	c #64926C",
"@+	c #A4CEAC",
"#+	c #34BA44",
"$+	c #24B234",
"%+	c #44EA68",
"&+	c #5C8064",
"*+	c #64D284",
"=+	c #5C925C",
"-+	c #64F27C",
";+	c #A4BAAC",
">+	c #3CB24C",
",+	c #7C967C",
"'+	c #4CEE64",
")+	c #3CA244",
"!+	c #2CDA54",
"~+	c #7CDE84",
"{+	c #54C664",
"]+	c #6C7A71",
"^+	c #44BA64",
"/+	c #749274",
"(+	c #3CAE44",
"_+	c #34E244",
":+	c #24B63C",
"<+	c #64D66C",
"[+	c #34D244",
"}+	c #249644",
"|+	c #7CB67C",
"1+	c #A4AEAC",
"2+	c #24D22C",
"3+	c #8CA68C",
"4+	c #349E4C",
"5+	c #54CE5C",
"6+	c #3C7A4C",
"7+	c #349A44",
"8+	c #7C8E7C",
"9+	c #1CBE28",
"0+	c #5C9668",
"a+	c #44AE50",
"b+	c #3CC23C",
"c+	c #548A5C",
"d+	c #749A7C",
"e+	c #ECF2EC",
"f+	c #D4E2D4",
"g+	c #24AA2C",
"h+	c #34A63C",
"i+	c #6CAA6C",
"j+	c #34A234",
"k+	c #3CA644",
"l+	c #74A274",
"m+	c #94B694",
"n+	c #A4C2AC",
"o+	c #8CAA8C",
"p+	c #64A664",
"q+	c #BCCEBC",
"r+	c #9CB69C",
"s+	c #CCDACC",
". . . . . . . . . . . . . . . . . . . . . . . . . . . . . . . . . . . . . . . . . . . . . . . . ",
". . . . . . . . . . . . . . . . . . . . . . . . . . . . . . . . . . . . . . . . . . . . . . . . ",
". . . . . . . . . . . . . . . . . . . . . . . . . . . . . . . . . . . . . . . . . . . . . . . . ",
". . . . . . . . . . . . . . . + @ # + $ . . . . . . . . . . . . . . . . . . . . . . . . . . . . ",
". . . . . . . . . . . . . + % & * = - - ; - - = > , ' ) + ! . . . . . . . . . . . . . . . . . . ",
". . . . . . . . . . ! ~ * = - { { ] ^ / ( ( _ : < : : < _ ^ / > . . . . . . . . . . . . . . . . ",
". . . . . . . . . ) * = = - ; ( _ [ : } } | 1 2 3 3 3 4 3 4 4 4 ! ! . . . . . . . . . . . . . . ",
". . . . . . . . . * = - - ; ; } } | 1 3 4 2 3 4 4 4 5 6 7 7 7 8 ) $ 9 . . . . . . . . . . . . . ",
". . . . . . . . . = - - { { 0 4 4 4 a 5 2 a 5 4 1 1 2 5 8 b 8 8 & ' # $ . . . . . . . . . . . . ",
". . . . . . . . ! - ; ; 0 ] ] 5 6 4 5 4 5 8 3 [ ] ] 0 0 3 7 8 8 [ * ~ @ ! . . . . . . . . . . . ",
". . . . . . . . @ ; ; { ] ^ ^ a 4 4 4 3 b a | [ ] ^ - * ; 6 7 8 1 ^ * c $ . . . . . . . . . . . ",
". . . . . . . . ~ { { ] ^ ^ ( 3 1 3 } 6 8 5 3 7 7 8 1 * & < 6 8 3 ( - ~ $ . . . . . . . . . . . ",
". . . . . . . . , 0 0 ^ ^ / : 1 | | [ b 8 1 [ d _ ( 2 e & ] 7 8 a ( { ~ + ! . . . . . . . . . . ",
". . . . . . . . = ] ] / ( _ : | : | ] f b [ , ~ % % / / * ] 6 8 5 _ { g h ! . . . . . . . . . . ",
". . . . . . . . { ^ ^ / _ [ } [ : : ] b i : > # ' ~ - 0 ] : a 7 6 _ ] > @ ! . . . . . . . . . . ",
". . . . . . . ! ] ] / ( [ : } _ _ [ ^ 6 f 7 ^ > & & { ^ : 3 4 6 7 ( ] % @ ! . . . . . . . . . . ",
". . . . . . . @ ^ / ( ( _ } | ^ ^ ( ^ / f i 8 6 3 4 2 3 4 4 3 5 6 ( ^ , j ! . . . . . . . . . . ",
". . . . . . . c / ( ( _ : } 1 ] 0 ] / ; : f f b b 8 8 8 1 } 4 4 a _ ^ & ) 9 . . . . . . . . . . ",
". . . . . . . , ( / _ [ } 1 1 { ; ] ] ] { k a 8 b b a ^ e 1 3 4 4 [ / * ) 9 . . . . . . . . . . ",
". . . . . . . ; ( _ _ [ } 2 | ; - ; 0 ^ / d { ; { ; ] _ | 2 l 3 4 : / = c $ . . . . . . . . . . ",
". . . . . . . ] _ _ _ : 1 3 | * * = - 0 ] m _ [ : } } | | 1 n 2 2 } ( - ' o . . . . . . . . . . ",
". . . . . . 9 ( ( _ _ < 2 4 } & % * = ; 0 p ; 0 ] ] / _ } } q | 1 } _ r ~ + ! . . . . . . . . . ",
". . . . . . + _ ( _ k } 3 3 : > s , * * ; t : : ( / ( | : : u } } | _ v g + ! . . . . . . . . . ",
". . . . . . ~ _ _ _ [ } 3 4 _ g w % , * 0 x } * ~ ~ & _ [ : x : } } _ y > @ ! . . . . . . . . . ",
". . . . . . , _ ( _ [ | 3 2 d ~ z > > % ] A e B 4 4 ~ ( C _ D [ e : / E % @ 9 . . . . . . . . . ",
". . . . . . { _ ( _ : | 3 | { ' F ~ > G % H } w ; - = } I / J / K [ ^ L & ) $ . . . . . . . . . ",
". . . . . . ] ( ( ( : | 2 M = c N ~ ~ O ' P 7 Q / / R a S ^ T / U / ^ N v ' j 9 . . . . . . . . ",
". . . . . ! ( ( / ( [ | 1 V * W X Y ~ Z g `  ...8 8 +.- @.#.$.^ S / d X %.g &.$ . . . . . . . . ",
". . . . . @ _ ( / ( : } 1 *., =.N -.' ;.%.>.,.'.> % ).* '.!.>.~.;.^ {.N ].% ^.@ 9 . . . . . . . ",
". . . . . > ( / / / k M 1 /., (._.:.' <.[.}.|._., , 1.* _.2.}.3.<.0 4._.5.v 6.# j ! . . . . . . ",
". . . . . % _ ( ( / ( 7.l 8.G 9.0.a.b.c.,.d.e.d.f.f.g.h.i.e.d.,.c.b.a.0.9.j.k.~ l.$ ! . . . . . ",
". . . . . & & & = * { m.m n.o.0.p.q.N r.}.s.t.u.v.w.x.y.u.t.s.z.r.N q.p.A.B.=.G C.@ $ . . . . . ",
". . . . . . . + D.E.6.z.F.G.p.H.s.I.F.J.A.K.s.u.L.L.u.s.K.K.u.M.J.F.I.H.s.p.G.F.N.O.P.Q.! . . . ",
". . . . . . ! + Y { ( U } R.S.z T.U.V.r.W.X.Y.A.Z.Z.`. +X.Y.d.W.9..+U.T.z ++R.0 @+~ # o ! . . . ",
". . . . . . ! + g - / #.[ #+[ U r.$+: %+S.g.o.}.&+&+*+&+}.o.`.=+%+: $+-+*.[ #+] ;+f.' @ o ! . . ",
". . . . . . ! o ) % * j.] >+( ,+'+)+[ !+< ~+{+5.]+]+^+]+5.{+~+< !+: )+'+/+: (+( B = > ~ @ o ! . ",
". . . . . . . ! + # c Y % D r m _+u ( :+k <+b.[+[ [ }+: [+b.<+: :+[ =+_+ .[ H ( d - & ~ ) + $ . ",
". . . . . . . . ! 9 $ + @ |+~ 1+2+3+] 4+^ 5+~.@._ _ 6+_ @.,+5+k 7+( 8+2+e / =+0 ; * > ~ @ o ! . ",
". . . . . . . . . . . ! 9 w.@ ~ 9+h.= 0+- W.r P ^ d &+^ a+{ b+/ c+d 0 9+- ; d+* , > ' @ e+! . . ",
". . . . . . . . . . . . . f++ ) g+~ % #., h+% {.{ { C { i+* j+{ 8+{ * g+f., B , ~ ' j + ! . . . ",
". . . . . . . . . . . . . e+$ h k+) ~ , g l+g m+* * - * m+> ++& - v % )+~ ~ v ~ c ) @ $ ! . . . ",
". . . . . . . . . . . . . ! 9 $ i+# ' ~ ' %.' y.% % % > n+' o+> , % ~ p+) ' Y ' @ @ o ! . . . . ",
". . . . . . . . . . . . . . . 9 y + # ' ) y # q+~ ~ ~ ' D.@ r+c ~ ~ ' m+@ ) ' ) + o 9 . . . . . ",
". . . . . . . . . . . . . . . ! s+$ @ ) @ v.+ ) ) c ) @ @ + w.@ ) c @ D.o @ ) @ $ 9 ! . . . . . ",
". . . . . . . . . . . . . . . . o 9 + # + s+$ o @ @ @ o 9 9 s++ @ @ + h $ + j + 9 ! . . . . . . ",
". . . . . . . . . . . . . . . . . ! o + o j ! $ + + o $ ! ! @ 9 o o $ ! ! + + o ! . . . . . . . ",
". . . . . . . . . . . . . . . . . . $ o 9 o . 9 $ e+$ ! . . o 9 $ $ 9 . ! 9 + $ . . . . . . . . ",
". . . . . . . . . . . . . . . . . . ! 9 9 e+. 9 9 9 9 ! . . e+. 9 $ ! . . ! 9 ! . . . . . . . . "};
